<?xml version="1.0" encoding="UTF-8"?><svg xmlns="http://www.w3.org/2000/svg" xmlns:xlink="http://www.w3.org/1999/xlink" contentStyleType="text/css" height="577px" preserveAspectRatio="none" style="width:321px;height:577px;background:#FFFFFF;" version="1.1" viewBox="0 0 321 577" width="321px" zoomAndPan="magnify">
    <defs/>
    <g>
        <!--cluster java-->
        <g id="cluster_java">
            <path d="M8.5,402 L38.5,402 A3.75,3.75 0 0 1 41,404.5 L48,425.6094 L289.5,425.6094 A2.5,2.5 0 0 1 292,428.1094 L292,567.5 A2.5,2.5 0 0 1 289.5,570 L8.5,570 A2.5,2.5 0 0 1 6,567.5 L6,404.5 A2.5,2.5 0 0 1 8.5,402 " fill="none" style="stroke:#000000;stroke-width:1.5;"/>
            <line style="stroke:#000000;stroke-width:1.5;" x1="6" x2="48" y1="425.6094" y2="425.6094"/>
            <text fill="#000000" font-family="sans-serif" font-size="14" font-weight="bold" lengthAdjust="spacing" textLength="29" x="10" y="418.5332">java</text>
        </g>
        <!--cluster lang-->
        <g id="cluster_lang">
            <path d="M150.5,446 L181.5,446 A3.75,3.75 0 0 1 184,448.5 L191,469.6094 L265.5,469.6094 A2.5,2.5 0 0 1 268,472.1094 L268,543.5 A2.5,2.5 0 0 1 265.5,546 L150.5,546 A2.5,2.5 0 0 1 148,543.5 L148,448.5 A2.5,2.5 0 0 1 150.5,446 " fill="none" style="stroke:#000000;stroke-width:1.5;"/>
            <line style="stroke:#000000;stroke-width:1.5;" x1="148" x2="191" y1="469.6094" y2="469.6094"/>
            <text fill="#000000" font-family="sans-serif" font-size="14" font-weight="bold" lengthAdjust="spacing" textLength="30" x="152" y="462.5332">lang</text>
        </g>
        <!--cluster util-->
        <g id="cluster_util">
            <path d="M32.5,446 L55.5,446 A3.75,3.75 0 0 1 58,448.5 L65,469.6094 L121.5,469.6094 A2.5,2.5 0 0 1 124,472.1094 L124,543.5 A2.5,2.5 0 0 1 121.5,546 L32.5,546 A2.5,2.5 0 0 1 30,543.5 L30,448.5 A2.5,2.5 0 0 1 32.5,446 " fill="none" style="stroke:#000000;stroke-width:1.5;"/>
            <line style="stroke:#000000;stroke-width:1.5;" x1="30" x2="65" y1="469.6094" y2="469.6094"/>
            <text fill="#000000" font-family="sans-serif" font-size="14" font-weight="bold" lengthAdjust="spacing" textLength="22" x="34" y="462.5332">util</text>
        </g>
        <!--cluster ec-->
        <g id="cluster_ec">
            <path d="M10.5,6 L28.5,6 A3.75,3.75 0 0 1 31,8.5 L38,29.6094 L311.5,29.6094 A2.5,2.5 0 0 1 314,32.1094 L314,375.5 A2.5,2.5 0 0 1 311.5,378 L10.5,378 A2.5,2.5 0 0 1 8,375.5 L8,8.5 A2.5,2.5 0 0 1 10.5,6 " fill="none" style="stroke:#000000;stroke-width:1.5;"/>
            <line style="stroke:#000000;stroke-width:1.5;" x1="8" x2="38" y1="29.6094" y2="29.6094"/>
            <text fill="#000000" font-family="sans-serif" font-size="14" font-weight="bold" lengthAdjust="spacing" textLength="17" x="12" y="22.5332">ec</text>
        </g>
        <!--cluster edu-->
        <g id="cluster_edu">
            <path d="M34.5,50 L62.5,50 A3.75,3.75 0 0 1 65,52.5 L72,73.6094 L287.5,73.6094 A2.5,2.5 0 0 1 290,76.1094 L290,351.5 A2.5,2.5 0 0 1 287.5,354 L34.5,354 A2.5,2.5 0 0 1 32,351.5 L32,52.5 A2.5,2.5 0 0 1 34.5,50 " fill="none" style="stroke:#000000;stroke-width:1.5;"/>
            <line style="stroke:#000000;stroke-width:1.5;" x1="32" x2="72" y1="73.6094" y2="73.6094"/>
            <text fill="#000000" font-family="sans-serif" font-size="14" font-weight="bold" lengthAdjust="spacing" textLength="27" x="36" y="66.5332">edu</text>
        </g>
        <!--cluster espe-->
        <g id="cluster_espe">
            <path d="M58.5,94 L94.5,94 A3.75,3.75 0 0 1 97,96.5 L104,117.6094 L263.5,117.6094 A2.5,2.5 0 0 1 266,120.1094 L266,327.5 A2.5,2.5 0 0 1 263.5,330 L58.5,330 A2.5,2.5 0 0 1 56,327.5 L56,96.5 A2.5,2.5 0 0 1 58.5,94 " fill="none" style="stroke:#000000;stroke-width:1.5;"/>
            <line style="stroke:#000000;stroke-width:1.5;" x1="56" x2="104" y1="117.6094" y2="117.6094"/>
            <text fill="#000000" font-family="sans-serif" font-size="14" font-weight="bold" lengthAdjust="spacing" textLength="35" x="60" y="110.5332">espe</text>
        </g>
        <!--cluster contacts-->
        <g id="cluster_contacts">
            <path d="M82.5,138 L143.5,138 A3.75,3.75 0 0 1 146,140.5 L153,161.6094 L239.5,161.6094 A2.5,2.5 0 0 1 242,164.1094 L242,303.5 A2.5,2.5 0 0 1 239.5,306 L82.5,306 A2.5,2.5 0 0 1 80,303.5 L80,140.5 A2.5,2.5 0 0 1 82.5,138 " fill="none" style="stroke:#000000;stroke-width:1.5;"/>
            <line style="stroke:#000000;stroke-width:1.5;" x1="80" x2="153" y1="161.6094" y2="161.6094"/>
            <text fill="#000000" font-family="sans-serif" font-size="14" font-weight="bold" lengthAdjust="spacing" textLength="60" x="84" y="154.5332">contacts</text>
        </g>
        <!--cluster model-->
        <g id="cluster_model">
            <path d="M106.5,182 L150.5,182 A3.75,3.75 0 0 1 153,184.5 L160,205.6094 L215.5,205.6094 A2.5,2.5 0 0 1 218,208.1094 L218,279.5 A2.5,2.5 0 0 1 215.5,282 L106.5,282 A2.5,2.5 0 0 1 104,279.5 L104,184.5 A2.5,2.5 0 0 1 106.5,182 " fill="none" style="stroke:#000000;stroke-width:1.5;"/>
            <line style="stroke:#000000;stroke-width:1.5;" x1="104" x2="160" y1="205.6094" y2="205.6094"/>
            <text fill="#000000" font-family="sans-serif" font-size="14" font-weight="bold" lengthAdjust="spacing" textLength="43" x="108" y="198.5332">model</text>
        </g>
        <!--class Override-->
        <g id="elem_Override">
            <rect codeLine="1" fill="#F1F1F1" height="48" id="Override" rx="2.5" ry="2.5" style="stroke:#181818;stroke-width:0.5;" width="87" x="164.5" y="482"/>
            <ellipse cx="179.5" cy="498" fill="#E3664A" rx="11" ry="11" style="stroke:#181818;stroke-width:1.0;"/>
            <path d="M181.8438,495.5781 L181.8438,495.0625 Q181.8438,494.2344 181.3594,493.7344 Q180.8906,493.2344 180.1406,493.2344 Q179.5469,493.2344 179.0156,493.6406 Q178.4844,494.0313 178.2188,494.6563 Q177.75,495.75 177.75,496.8594 L177.75,499.375 Q177.75,501.2969 178.6094,502.4219 Q179.1719,503.1719 180.1875,503.1719 Q180.7344,503.1719 181.1719,503.0313 Q181.625,502.8906 181.875,502.6406 Q182.125,502.3906 182.3438,502.3906 Q182.6094,502.3906 182.7969,502.5781 Q182.9844,502.7656 182.9844,503.0313 Q182.9844,503.4531 182.4063,503.8438 Q181.5781,504.4063 180.1406,504.4063 Q179.0469,504.4063 178.3281,503.9063 Q177.4063,503.2656 176.9531,502 Q176.5,500.7344 176.5,499.5 L176.5,496.7656 Q176.5,494.7813 177.4844,493.3906 Q178.4688,491.9844 180.1094,491.9844 Q180.8594,491.9844 181.5,492.2969 Q182.1563,492.5938 182.625,493.3594 Q183.0938,494.125 183.0938,495.0625 L183.0938,499.5938 Q183.4531,499.7656 183.4531,500.1563 Q183.4531,500.4375 183.25,500.625 Q183.0625,500.7969 182.5938,500.7969 L181.8438,500.7969 L181.8438,500.75 Q181.4531,500.8125 181.2656,500.8125 Q180.2656,500.8125 179.5156,500.0781 Q178.7813,499.3281 178.7813,498.3281 Q178.7813,497.2656 179.5938,496.4688 Q180.4219,495.6719 181.8438,495.5781 Z M181.8438,496.8594 Q180.9531,496.9531 180.4844,497.375 Q180.0313,497.7969 180.0313,498.3438 Q180.0313,498.8281 180.4063,499.1719 Q180.7969,499.5156 181.4375,499.5156 Q181.5625,499.5156 181.8438,499.5 L181.8438,496.8594 Z " fill="#000000"/>
            <text fill="#000000" font-family="sans-serif" font-size="14" lengthAdjust="spacing" textLength="55" x="193.5" y="503.7285">Override</text>
            <line style="stroke:#181818;stroke-width:0.5;" x1="165.5" x2="250.5" y1="514" y2="514"/>
            <line style="stroke:#181818;stroke-width:0.5;" x1="165.5" x2="250.5" y1="522" y2="522"/>
        </g>
        <!--class Date-->
        <g id="elem_Date">
            <rect codeLine="3" fill="#F1F1F1" height="48" id="Date" rx="2.5" ry="2.5" style="stroke:#181818;stroke-width:0.5;" width="62" x="46" y="482"/>
            <ellipse cx="61" cy="498" fill="#ADD1B2" rx="11" ry="11" style="stroke:#181818;stroke-width:1.0;"/>
            <path d="M63.7656,493.875 Q63.9219,493.6563 64.1094,493.5469 Q64.2969,493.4375 64.5156,493.4375 Q64.8906,493.4375 65.125,493.7031 Q65.3594,493.9531 65.3594,494.5625 L65.3594,496.0156 Q65.3594,496.625 65.125,496.8906 Q64.8906,497.1563 64.5156,497.1563 Q64.1719,497.1563 63.9688,496.9531 Q63.7656,496.7656 63.6563,496.25 Q63.6094,495.8906 63.4219,495.7031 Q63.0938,495.3281 62.4844,495.1094 Q61.875,494.8906 61.25,494.8906 Q60.4844,494.8906 59.8438,495.2188 Q59.2188,495.5469 58.7188,496.2969 Q58.2344,497.0469 58.2344,498.0781 L58.2344,499.1719 Q58.2344,500.4063 59.125,501.2344 Q60.0156,502.0469 61.6094,502.0469 Q62.5469,502.0469 63.2031,501.7969 Q63.5938,501.6406 64.0156,501.2031 Q64.2813,500.9375 64.4219,500.8594 Q64.5781,500.7813 64.7813,500.7813 Q65.1094,500.7813 65.3594,501.0469 Q65.625,501.2969 65.625,501.6406 Q65.625,501.9844 65.2813,502.3906 Q64.7813,502.9688 63.9844,503.2969 Q62.9063,503.75 61.6094,503.75 Q60.0938,503.75 58.8906,503.125 Q57.9063,502.625 57.2188,501.5625 Q56.5313,500.4844 56.5313,499.2031 L56.5313,498.0469 Q56.5313,496.7188 57.1406,495.5781 Q57.7656,494.4219 58.8594,493.8125 Q59.9531,493.1875 61.1875,493.1875 Q61.9219,493.1875 62.5625,493.3594 Q63.2188,493.5156 63.7656,493.875 Z " fill="#000000"/>
            <text fill="#000000" font-family="sans-serif" font-size="14" lengthAdjust="spacing" textLength="30" x="75" y="503.7285">Date</text>
            <line style="stroke:#181818;stroke-width:0.5;" x1="47" x2="107" y1="514" y2="514"/>
            <line style="stroke:#181818;stroke-width:0.5;" x1="47" x2="107" y1="522" y2="522"/>
        </g>
        <!--class Contact-->
        <g id="elem_Contact">
            <rect codeLine="2" fill="#F1F1F1" height="48" id="Contact" rx="2.5" ry="2.5" style="stroke:#181818;stroke-width:0.5;" width="81" x="120.5" y="218"/>
            <ellipse cx="135.5" cy="234" fill="#ADD1B2" rx="11" ry="11" style="stroke:#181818;stroke-width:1.0;"/>
            <path d="M138.2656,229.875 Q138.4219,229.6563 138.6094,229.5469 Q138.7969,229.4375 139.0156,229.4375 Q139.3906,229.4375 139.625,229.7031 Q139.8594,229.9531 139.8594,230.5625 L139.8594,232.0156 Q139.8594,232.625 139.625,232.8906 Q139.3906,233.1563 139.0156,233.1563 Q138.6719,233.1563 138.4688,232.9531 Q138.2656,232.7656 138.1563,232.25 Q138.1094,231.8906 137.9219,231.7031 Q137.5938,231.3281 136.9844,231.1094 Q136.375,230.8906 135.75,230.8906 Q134.9844,230.8906 134.3438,231.2188 Q133.7188,231.5469 133.2188,232.2969 Q132.7344,233.0469 132.7344,234.0781 L132.7344,235.1719 Q132.7344,236.4063 133.625,237.2344 Q134.5156,238.0469 136.1094,238.0469 Q137.0469,238.0469 137.7031,237.7969 Q138.0938,237.6406 138.5156,237.2031 Q138.7813,236.9375 138.9219,236.8594 Q139.0781,236.7813 139.2813,236.7813 Q139.6094,236.7813 139.8594,237.0469 Q140.125,237.2969 140.125,237.6406 Q140.125,237.9844 139.7813,238.3906 Q139.2813,238.9688 138.4844,239.2969 Q137.4063,239.75 136.1094,239.75 Q134.5938,239.75 133.3906,239.125 Q132.4063,238.625 131.7188,237.5625 Q131.0313,236.4844 131.0313,235.2031 L131.0313,234.0469 Q131.0313,232.7188 131.6406,231.5781 Q132.2656,230.4219 133.3594,229.8125 Q134.4531,229.1875 135.6875,229.1875 Q136.4219,229.1875 137.0625,229.3594 Q137.7188,229.5156 138.2656,229.875 Z " fill="#000000"/>
            <text fill="#000000" font-family="sans-serif" font-size="14" lengthAdjust="spacing" textLength="49" x="149.5" y="239.7285">Contact</text>
            <line style="stroke:#181818;stroke-width:0.5;" x1="121.5" x2="200.5" y1="250" y2="250"/>
            <line style="stroke:#181818;stroke-width:0.5;" x1="121.5" x2="200.5" y1="258" y2="258"/>
        </g>
        <!--link Contact to Override-->
        <g id="link_Contact_Override">
            <path codeLine="4" d="M165.17,266.25 C174.09,315.97 193.8706,426.2243 202.7806,475.8943 " fill="none" id="Contact-to-Override" style="stroke:#181818;stroke-width:1.0;stroke-dasharray:7.0,7.0;"/>
            <polygon fill="#181818" points="203.84,481.8,206.1881,472.2351,202.9572,476.8786,198.3138,473.6477,203.84,481.8" style="stroke:#181818;stroke-width:1.0;"/>
        </g>
        <!--link Contact to Date-->
        <g id="link_Contact_Date">
            <path codeLine="5" d="M153.55,266.25 C137.61,315.97 102.1913,426.4163 86.2713,476.0863 " fill="none" id="Contact-to-Date" style="stroke:#181818;stroke-width:1.0;stroke-dasharray:7.0,7.0;"/>
            <polygon fill="#181818" points="84.44,481.8,90.9961,474.4503,85.9661,477.0386,83.3779,472.0086,84.44,481.8" style="stroke:#181818;stroke-width:1.0;"/>
        </g>
        <!--SRC=[bOr12e0m30JlVKLVi4_medVV4D8WbPfAc_RzWeedGJmkxCoGQZQocDMlr0c9TC7SfPGOn76YMhqm93H8tGMSrOYjOij14iPhtiVJq2mcJ6JYlZaF36_TF-JJEm00]-->
    </g>
</svg>
